<svg width="401" height="201" viewBox="0 0 401 201" fill="none" xmlns="http://www.w3.org/2000/svg">
<path d="M102.961 107.607C104.992 101.721 106.32 93.8438 106.945 83.974L98.9375 81.0834L107.336 73.0756C107.336 71.8776 107.336 69.2735 107.336 65.2631C107.336 61.2526 107.167 54.9636 106.828 46.3959C105.474 45.7709 104.094 45.1459 102.688 44.5209C101.307 43.8698 99.9401 43.2058 98.5859 42.5287L105.305 33.974C112.44 36.0573 117.583 37.5938 120.734 38.5834C120.656 39.4167 120.591 40.25 120.539 41.0834C120.487 41.9167 120.422 42.724 120.344 43.5052L132.219 33.974C141.073 40.6667 145.5 48.6224 145.5 57.8412C145.5 58.8308 145.448 59.8204 145.344 60.8099C144.302 71.3308 139.667 81.9688 131.438 92.724L118.898 88.2318C119.133 92.4245 119.641 95.224 120.422 96.6302C116.151 99.2605 110.331 102.919 102.961 107.607ZM131.828 81.0052C135.057 81.0052 136.672 78.5443 136.672 73.6224C136.672 69.4297 135.865 65.1198 134.25 60.6927C132.635 56.2657 130.448 52.7891 127.688 50.2631C126.594 49.2474 125.526 48.7396 124.484 48.7396C122.87 48.7396 121.294 49.9245 119.758 52.2943C119.211 60.862 118.872 68.4401 118.742 75.0287L131.594 81.0052C131.672 81.0052 131.75 81.0052 131.828 81.0052ZM163.156 57.4506L168.234 52.2943C173.469 55.9141 177.01 59.586 178.859 63.3099L172.609 71.6693C171.906 69.612 170.943 67.8021 169.719 66.2396C168.521 64.6771 166.516 63.0756 163.703 61.4349L162.414 63.1927L161.672 76.5131C161.594 77.8672 162.453 79.2735 164.25 80.7318C166.047 82.1901 167.44 83.1276 168.43 83.5443L161.945 92.724L149.836 83.3099C151.294 81.5651 152.049 79.7683 152.102 77.9193L152.023 62.9193C151.945 61.6693 150.982 60.4193 149.133 59.1693L155.031 51.7474L163.156 57.4506ZM180.891 64.2865L196.125 51.9037L213.391 59.9896C211.359 61.7605 210.331 63.7526 210.305 65.9662L210.148 78.8959C210.148 79.7813 210.604 80.7839 211.516 81.9037C212.453 83.0235 213.339 83.9219 214.172 84.599L206.281 92.724L200.227 86.5131C198.768 87.6849 197.297 88.7657 195.812 89.7552C194.328 90.7188 193 91.7344 191.828 92.8021C187.922 91.3438 184.276 89.0912 180.891 86.0443C181.854 84.8204 182.414 83.0365 182.57 80.6927L182.453 68.8959C182.453 68.7917 182.453 68.6875 182.453 68.5834C182.453 67.0469 181.932 65.6146 180.891 64.2865ZM194.289 61.2787C192.779 63.5443 192.023 65.5625 192.023 67.3334V76.9037C192.023 78.8568 192.375 80.25 193.078 81.0834C193.677 81.9427 194.224 82.711 194.719 83.3881C195.24 84.0651 196.06 84.5599 197.18 84.8724L200.383 82.5677V64.599L194.289 61.2787ZM216.477 85.4584L223.273 78.349C220.826 75.0677 219.094 71.3568 218.078 67.2162C221.203 62.0599 225.826 56.9037 231.945 51.7474C236.763 53.0756 242.284 54.3256 248.508 55.4974L249.445 55.2631L242.102 62.8021L248.508 78.8568C243.664 82.4766 239.211 87.099 235.148 92.724C230.07 89.7292 223.846 87.3073 216.477 85.4584ZM237.141 82.7631C239.771 82.7631 241.086 81.8256 241.086 79.9506C241.086 78.3099 239.211 74.8724 235.461 69.6381L226.086 79.2865C230.122 81.6042 233.807 82.7631 237.141 82.7631ZM230.969 70.3412L238.547 62.5287C234.016 61.3047 230.982 60.6927 229.445 60.6927C227.909 60.6927 227.049 60.849 226.867 61.1615C226.711 61.448 226.633 61.7214 226.633 61.9818C226.633 63.4662 228.078 66.2526 230.969 70.3412ZM251.672 59.1693L257.57 51.7474L266.32 55.849C266.008 56.9167 265.669 57.9584 265.305 58.974C264.94 59.9896 264.758 61.0313 264.758 62.099L264.211 77.9584C264.211 78.0886 264.211 78.2058 264.211 78.3099C264.211 79.5339 264.602 80.5495 265.383 81.3568C266.164 82.1641 267.062 82.7761 268.078 83.1927L260.266 92.724L251.984 86.0443C253.495 84.2474 254.25 82.4506 254.25 80.6537L254.523 62.9193C254.523 61.6693 253.573 60.4193 251.672 59.1693ZM252.844 51.3959L255.969 35.9662L267.57 40.6146L252.844 51.3959ZM269.914 85.4584L276.711 78.349C274.263 75.0677 272.531 71.3568 271.516 67.2162C274.641 62.0599 279.263 56.9037 285.383 51.7474C290.201 53.0756 295.721 54.3256 301.945 55.4974L302.883 55.2631L295.539 62.8021L301.945 78.8568C297.102 82.4766 292.648 87.099 288.586 92.724C283.508 89.7292 277.284 87.3073 269.914 85.4584ZM290.578 82.7631C293.208 82.7631 294.523 81.8256 294.523 79.9506C294.523 78.3099 292.648 74.8724 288.898 69.6381L279.523 79.2865C283.56 81.6042 287.245 82.7631 290.578 82.7631ZM284.406 70.3412L291.984 62.5287C287.453 61.3047 284.419 60.6927 282.883 60.6927C281.346 60.6927 280.487 60.849 280.305 61.1615C280.148 61.448 280.07 61.7214 280.07 61.9818C280.07 63.4662 281.516 66.2526 284.406 70.3412Z" fill="black"/>
<path d="M132.092 125.823L137.948 140.919C138.188 141.527 138.46 141.935 138.764 142.143C139.068 142.335 139.348 142.439 139.604 142.455V142.935C139.284 142.903 138.892 142.887 138.428 142.887C137.964 142.871 137.5 142.863 137.036 142.863C136.412 142.863 135.828 142.871 135.284 142.887C134.74 142.887 134.3 142.903 133.964 142.935V142.455C134.78 142.423 135.3 142.287 135.524 142.047C135.748 141.791 135.7 141.255 135.38 140.439L130.916 128.511L131.3 128.199L127.124 139.047C126.868 139.687 126.716 140.231 126.668 140.679C126.62 141.111 126.66 141.455 126.788 141.711C126.932 141.967 127.164 142.151 127.484 142.263C127.82 142.375 128.236 142.439 128.732 142.455V142.935C128.284 142.903 127.812 142.887 127.316 142.887C126.836 142.871 126.388 142.863 125.972 142.863C125.572 142.863 125.228 142.871 124.94 142.887C124.668 142.887 124.412 142.903 124.172 142.935V142.455C124.492 142.375 124.82 142.191 125.156 141.903C125.492 141.599 125.796 141.087 126.068 140.367L131.708 125.823C131.772 125.823 131.836 125.823 131.9 125.823C131.964 125.823 132.028 125.823 132.092 125.823ZM135.02 136.023V136.503H127.868L128.108 136.023H135.02ZM150.322 130.311V140.343C150.322 141.063 150.45 141.599 150.706 141.951C150.978 142.287 151.458 142.455 152.146 142.455V142.959C151.65 142.911 151.154 142.887 150.658 142.887C150.194 142.887 149.746 142.911 149.314 142.959C148.898 143.007 148.514 143.095 148.162 143.223V140.391C147.762 141.431 147.194 142.175 146.458 142.623C145.738 143.055 144.994 143.271 144.226 143.271C143.666 143.271 143.178 143.191 142.762 143.031C142.346 142.871 142.002 142.647 141.73 142.359C141.426 142.039 141.218 141.623 141.106 141.111C140.994 140.599 140.938 139.967 140.938 139.215V133.191C140.938 132.471 140.81 131.943 140.554 131.607C140.298 131.255 139.818 131.079 139.114 131.079V130.575C139.626 130.623 140.122 130.647 140.602 130.647C141.066 130.647 141.506 130.623 141.922 130.575C142.354 130.511 142.746 130.423 143.098 130.311V139.743C143.098 140.239 143.13 140.695 143.194 141.111C143.258 141.527 143.418 141.863 143.674 142.119C143.93 142.375 144.346 142.503 144.922 142.503C145.546 142.503 146.098 142.311 146.578 141.927C147.074 141.543 147.458 141.023 147.73 140.367C148.018 139.711 148.162 138.975 148.162 138.159V133.191C148.162 132.471 148.034 131.943 147.778 131.607C147.522 131.255 147.042 131.079 146.338 131.079V130.575C146.85 130.623 147.346 130.647 147.826 130.647C148.29 130.647 148.73 130.623 149.146 130.575C149.578 130.511 149.97 130.423 150.322 130.311ZM159.372 130.239C159.884 130.239 160.38 130.303 160.86 130.431C161.34 130.559 161.772 130.751 162.156 131.007C162.524 131.247 162.804 131.527 162.996 131.847C163.188 132.151 163.284 132.487 163.284 132.855C163.284 133.287 163.164 133.623 162.924 133.863C162.684 134.087 162.38 134.199 162.012 134.199C161.66 134.199 161.348 134.095 161.076 133.887C160.82 133.679 160.692 133.383 160.692 132.999C160.692 132.631 160.788 132.335 160.98 132.111C161.188 131.887 161.428 131.743 161.7 131.679C161.54 131.391 161.252 131.151 160.836 130.959C160.436 130.767 160.004 130.671 159.54 130.671C159.14 130.671 158.74 130.767 158.34 130.959C157.94 131.151 157.572 131.471 157.236 131.919C156.9 132.351 156.628 132.951 156.42 133.719C156.212 134.471 156.108 135.415 156.108 136.551C156.108 137.959 156.268 139.079 156.588 139.911C156.908 140.743 157.324 141.343 157.836 141.711C158.364 142.063 158.94 142.239 159.564 142.239C159.98 142.239 160.404 142.159 160.836 141.999C161.268 141.839 161.676 141.583 162.06 141.231C162.444 140.863 162.772 140.375 163.044 139.767L163.5 139.935C163.34 140.447 163.076 140.967 162.708 141.495C162.34 142.007 161.86 142.431 161.268 142.767C160.676 143.103 159.948 143.271 159.084 143.271C158.092 143.271 157.196 143.015 156.396 142.503C155.596 141.991 154.956 141.263 154.476 140.319C154.012 139.359 153.78 138.223 153.78 136.911C153.78 135.599 154.012 134.447 154.476 133.455C154.956 132.447 155.62 131.663 156.468 131.103C157.316 130.527 158.284 130.239 159.372 130.239ZM168.908 126.591V130.599H172.46V131.079H168.908V140.367C168.908 141.119 169.044 141.647 169.316 141.951C169.588 142.255 169.964 142.407 170.444 142.407C170.924 142.407 171.34 142.215 171.692 141.831C172.044 141.431 172.348 140.767 172.604 139.839L173.084 139.959C172.924 140.887 172.604 141.671 172.124 142.311C171.66 142.951 170.94 143.271 169.964 143.271C169.42 143.271 168.972 143.199 168.62 143.055C168.268 142.927 167.956 142.735 167.684 142.479C167.332 142.111 167.084 141.671 166.94 141.159C166.812 140.647 166.748 139.967 166.748 139.119V131.079H164.444V130.599H166.748V126.927C167.148 126.911 167.532 126.879 167.9 126.831C168.268 126.783 168.604 126.703 168.908 126.591ZM176.264 124.575C176.68 124.575 177.04 124.727 177.344 125.031C177.648 125.335 177.8 125.695 177.8 126.111C177.8 126.527 177.648 126.887 177.344 127.191C177.04 127.495 176.68 127.647 176.264 127.647C175.848 127.647 175.488 127.495 175.184 127.191C174.88 126.887 174.728 126.527 174.728 126.111C174.728 125.695 174.88 125.335 175.184 125.031C175.488 124.727 175.848 124.575 176.264 124.575ZM177.512 130.311V140.703C177.512 141.375 177.648 141.831 177.92 142.071C178.208 142.311 178.68 142.431 179.336 142.431V142.935C179.064 142.919 178.648 142.903 178.088 142.887C177.544 142.855 176.992 142.839 176.432 142.839C175.888 142.839 175.336 142.855 174.776 142.887C174.216 142.903 173.8 142.919 173.528 142.935V142.431C174.184 142.431 174.648 142.311 174.92 142.071C175.208 141.831 175.352 141.375 175.352 140.703V133.191C175.352 132.471 175.224 131.943 174.968 131.607C174.712 131.255 174.232 131.079 173.528 131.079V130.575C174.04 130.623 174.536 130.647 175.016 130.647C175.48 130.647 175.92 130.623 176.336 130.575C176.768 130.511 177.16 130.423 177.512 130.311ZM186.439 130.239C187.463 130.239 188.383 130.463 189.199 130.911C190.015 131.359 190.663 132.063 191.143 133.023C191.639 133.983 191.887 135.231 191.887 136.767C191.887 138.303 191.639 139.551 191.143 140.511C190.663 141.455 190.015 142.151 189.199 142.599C188.383 143.047 187.463 143.271 186.439 143.271C185.431 143.271 184.511 143.047 183.679 142.599C182.863 142.151 182.207 141.455 181.711 140.511C181.231 139.551 180.991 138.303 180.991 136.767C180.991 135.231 181.231 133.983 181.711 133.023C182.207 132.063 182.863 131.359 183.679 130.911C184.511 130.463 185.431 130.239 186.439 130.239ZM186.439 130.719C185.527 130.719 184.775 131.191 184.183 132.135C183.607 133.079 183.319 134.623 183.319 136.767C183.319 138.911 183.607 140.455 184.183 141.399C184.775 142.327 185.527 142.791 186.439 142.791C187.351 142.791 188.095 142.327 188.671 141.399C189.263 140.455 189.559 138.911 189.559 136.767C189.559 134.623 189.263 133.079 188.671 132.135C188.095 131.191 187.351 130.719 186.439 130.719ZM201.772 130.239C202.38 130.239 202.884 130.319 203.284 130.479C203.7 130.639 204.044 130.863 204.316 131.151C204.62 131.471 204.836 131.871 204.964 132.351C205.092 132.831 205.156 133.479 205.156 134.295V140.703C205.156 141.375 205.292 141.831 205.564 142.071C205.852 142.311 206.324 142.431 206.98 142.431V142.935C206.708 142.919 206.292 142.903 205.732 142.887C205.172 142.855 204.628 142.839 204.1 142.839C203.572 142.839 203.052 142.855 202.54 142.887C202.044 142.903 201.668 142.919 201.412 142.935V142.431C201.988 142.431 202.396 142.311 202.636 142.071C202.876 141.831 202.996 141.375 202.996 140.703V133.767C202.996 133.271 202.956 132.815 202.876 132.399C202.796 131.983 202.612 131.647 202.324 131.391C202.052 131.135 201.628 131.007 201.052 131.007C200.38 131.007 199.788 131.199 199.276 131.583C198.78 131.967 198.388 132.495 198.1 133.167C197.828 133.823 197.692 134.559 197.692 135.375V140.703C197.692 141.375 197.812 141.831 198.052 142.071C198.292 142.311 198.7 142.431 199.276 142.431V142.935C199.02 142.919 198.636 142.903 198.124 142.887C197.628 142.855 197.116 142.839 196.588 142.839C196.06 142.839 195.516 142.855 194.956 142.887C194.396 142.903 193.98 142.919 193.708 142.935V142.431C194.364 142.431 194.828 142.311 195.1 142.071C195.388 141.831 195.532 141.375 195.532 140.703V133.191C195.532 132.471 195.404 131.943 195.148 131.607C194.892 131.255 194.412 131.079 193.708 131.079V130.575C194.22 130.623 194.716 130.647 195.196 130.647C195.66 130.647 196.1 130.623 196.516 130.575C196.948 130.511 197.34 130.423 197.692 130.311V133.143C198.108 132.055 198.684 131.303 199.42 130.887C200.172 130.455 200.956 130.239 201.772 130.239ZM217.046 124.143V133.119C217.462 132.031 218.038 131.279 218.774 130.863C219.526 130.447 220.31 130.239 221.126 130.239C221.734 130.239 222.238 130.319 222.638 130.479C223.054 130.639 223.398 130.863 223.67 131.151C223.974 131.471 224.19 131.871 224.318 132.351C224.446 132.831 224.51 133.479 224.51 134.295V140.703C224.51 141.375 224.646 141.831 224.918 142.071C225.206 142.311 225.678 142.431 226.334 142.431V142.935C226.062 142.919 225.646 142.903 225.086 142.887C224.526 142.855 223.982 142.839 223.454 142.839C222.926 142.839 222.406 142.855 221.894 142.887C221.398 142.903 221.022 142.919 220.766 142.935V142.431C221.342 142.431 221.75 142.311 221.99 142.071C222.23 141.831 222.35 141.375 222.35 140.703V133.767C222.35 133.271 222.31 132.815 222.23 132.399C222.15 131.983 221.966 131.647 221.678 131.391C221.406 131.135 220.982 131.007 220.406 131.007C219.75 131.007 219.166 131.191 218.654 131.559C218.158 131.927 217.766 132.439 217.478 133.095C217.19 133.751 217.046 134.503 217.046 135.351V140.703C217.046 141.375 217.166 141.831 217.406 142.071C217.646 142.311 218.054 142.431 218.63 142.431V142.935C218.374 142.919 217.99 142.903 217.478 142.887C216.982 142.855 216.47 142.839 215.942 142.839C215.414 142.839 214.87 142.855 214.31 142.887C213.75 142.903 213.334 142.919 213.062 142.935V142.431C213.718 142.431 214.182 142.311 214.454 142.071C214.742 141.831 214.886 141.375 214.886 140.703V127.023C214.886 126.303 214.758 125.775 214.502 125.439C214.246 125.087 213.766 124.911 213.062 124.911V124.407C213.574 124.455 214.07 124.479 214.55 124.479C215.014 124.479 215.454 124.455 215.87 124.407C216.302 124.343 216.694 124.255 217.046 124.143ZM233.267 130.239C234.291 130.239 235.211 130.463 236.027 130.911C236.843 131.359 237.491 132.063 237.971 133.023C238.467 133.983 238.715 135.231 238.715 136.767C238.715 138.303 238.467 139.551 237.971 140.511C237.491 141.455 236.843 142.151 236.027 142.599C235.211 143.047 234.291 143.271 233.267 143.271C232.259 143.271 231.339 143.047 230.507 142.599C229.691 142.151 229.035 141.455 228.539 140.511C228.059 139.551 227.819 138.303 227.819 136.767C227.819 135.231 228.059 133.983 228.539 133.023C229.035 132.063 229.691 131.359 230.507 130.911C231.339 130.463 232.259 130.239 233.267 130.239ZM233.267 130.719C232.355 130.719 231.603 131.191 231.011 132.135C230.435 133.079 230.147 134.623 230.147 136.767C230.147 138.911 230.435 140.455 231.011 141.399C231.603 142.327 232.355 142.791 233.267 142.791C234.179 142.791 234.923 142.327 235.499 141.399C236.091 140.455 236.387 138.911 236.387 136.767C236.387 134.623 236.091 133.079 235.499 132.135C234.923 131.191 234.179 130.719 233.267 130.719ZM251.432 130.311V140.343C251.432 141.063 251.56 141.599 251.816 141.951C252.088 142.287 252.568 142.455 253.256 142.455V142.959C252.76 142.911 252.264 142.887 251.768 142.887C251.304 142.887 250.856 142.911 250.424 142.959C250.008 143.007 249.624 143.095 249.272 143.223V140.391C248.872 141.431 248.304 142.175 247.568 142.623C246.848 143.055 246.104 143.271 245.336 143.271C244.776 143.271 244.288 143.191 243.872 143.031C243.456 142.871 243.112 142.647 242.84 142.359C242.536 142.039 242.328 141.623 242.216 141.111C242.104 140.599 242.048 139.967 242.048 139.215V133.191C242.048 132.471 241.92 131.943 241.664 131.607C241.408 131.255 240.928 131.079 240.224 131.079V130.575C240.736 130.623 241.232 130.647 241.712 130.647C242.176 130.647 242.616 130.623 243.032 130.575C243.464 130.511 243.856 130.423 244.208 130.311V139.743C244.208 140.239 244.24 140.695 244.304 141.111C244.368 141.527 244.528 141.863 244.784 142.119C245.04 142.375 245.456 142.503 246.032 142.503C246.656 142.503 247.208 142.311 247.688 141.927C248.184 141.543 248.568 141.023 248.84 140.367C249.128 139.711 249.272 138.975 249.272 138.159V133.191C249.272 132.471 249.144 131.943 248.888 131.607C248.632 131.255 248.152 131.079 247.448 131.079V130.575C247.96 130.623 248.456 130.647 248.936 130.647C249.4 130.647 249.84 130.623 250.256 130.575C250.688 130.511 251.08 130.423 251.432 130.311ZM258.777 130.239C259.417 130.239 259.961 130.343 260.409 130.551C260.857 130.759 261.185 130.951 261.393 131.127C261.921 131.559 262.241 131.271 262.353 130.263H262.905C262.873 130.711 262.849 131.247 262.833 131.871C262.817 132.479 262.809 133.303 262.809 134.343H262.257C262.161 133.751 261.993 133.175 261.753 132.615C261.529 132.055 261.193 131.599 260.745 131.247C260.297 130.879 259.713 130.695 258.993 130.695C258.433 130.695 257.961 130.855 257.577 131.175C257.209 131.479 257.025 131.935 257.025 132.543C257.025 133.023 257.169 133.439 257.457 133.791C257.745 134.127 258.121 134.447 258.585 134.751C259.049 135.039 259.553 135.359 260.097 135.711C260.705 136.095 261.257 136.487 261.753 136.887C262.249 137.287 262.641 137.727 262.929 138.207C263.233 138.687 263.385 139.255 263.385 139.911C263.385 140.647 263.193 141.263 262.809 141.759C262.425 142.255 261.921 142.631 261.297 142.887C260.689 143.143 260.017 143.271 259.281 143.271C258.929 143.271 258.593 143.239 258.273 143.175C257.969 143.127 257.673 143.047 257.385 142.935C257.225 142.855 257.057 142.759 256.881 142.647C256.721 142.535 256.561 142.415 256.401 142.287C256.241 142.159 256.097 142.167 255.969 142.311C255.841 142.439 255.745 142.703 255.681 143.103H255.129C255.161 142.591 255.185 141.967 255.201 141.231C255.217 140.495 255.225 139.519 255.225 138.303H255.777C255.889 139.199 256.049 139.983 256.257 140.655C256.465 141.327 256.793 141.855 257.241 142.239C257.689 142.607 258.313 142.791 259.113 142.791C259.433 142.791 259.753 142.719 260.073 142.575C260.409 142.431 260.689 142.191 260.913 141.855C261.137 141.519 261.249 141.071 261.249 140.511C261.249 139.807 260.993 139.231 260.481 138.783C259.969 138.335 259.321 137.863 258.537 137.367C257.961 136.999 257.417 136.631 256.905 136.263C256.409 135.895 256.001 135.479 255.681 135.015C255.377 134.551 255.225 133.991 255.225 133.335C255.225 132.615 255.385 132.031 255.705 131.583C256.041 131.119 256.481 130.783 257.025 130.575C257.569 130.351 258.153 130.239 258.777 130.239ZM271.048 130.239C272.456 130.239 273.552 130.671 274.336 131.535C275.136 132.383 275.536 133.711 275.536 135.519H267.064L267.04 135.063H273.232C273.264 134.279 273.2 133.559 273.04 132.903C272.88 132.231 272.624 131.695 272.272 131.295C271.936 130.895 271.496 130.695 270.952 130.695C270.216 130.695 269.56 131.063 268.984 131.799C268.424 132.535 268.088 133.703 267.976 135.303L268.048 135.399C268.016 135.639 267.992 135.903 267.976 136.191C267.96 136.479 267.952 136.767 267.952 137.055C267.952 138.143 268.128 139.079 268.48 139.863C268.832 140.647 269.288 141.247 269.848 141.663C270.424 142.063 271.016 142.263 271.624 142.263C272.104 142.263 272.56 142.191 272.992 142.047C273.424 141.887 273.824 141.631 274.192 141.279C274.56 140.927 274.88 140.455 275.152 139.863L275.632 140.055C275.456 140.583 275.168 141.095 274.768 141.591C274.368 142.087 273.864 142.495 273.256 142.815C272.648 143.119 271.944 143.271 271.144 143.271C269.992 143.271 269 143.007 268.168 142.479C267.352 141.951 266.72 141.223 266.272 140.295C265.84 139.351 265.624 138.271 265.624 137.055C265.624 135.647 265.848 134.439 266.296 133.431C266.744 132.407 267.376 131.623 268.192 131.079C269.008 130.519 269.96 130.239 271.048 130.239Z" fill="#555555"/>
</svg>
