<svg width="212" height="105" viewBox="0 0 212 105" fill="none" xmlns="http://www.w3.org/2000/svg">
<path d="M8.30266 96.7642C10.3339 90.8788 11.662 83.0012 12.287 73.1314L4.27922 70.2408L12.6777 62.233C12.6777 61.035 12.6777 58.4309 12.6777 54.4205C12.6777 50.41 12.5084 44.121 12.1698 35.5533C10.8157 34.9283 9.43547 34.3033 8.02922 33.6783C6.64901 33.0272 5.28182 32.3632 3.92766 31.6861L10.6464 23.1314C17.7818 25.2147 22.9251 26.7512 26.0761 27.7408C25.998 28.5741 25.9329 29.4074 25.8808 30.2408C25.8287 31.0741 25.7636 31.8814 25.6855 32.6626L37.5605 23.1314C46.4146 29.8241 50.8417 37.7798 50.8417 46.9986C50.8417 47.9882 50.7896 48.9777 50.6855 49.9673C49.6438 60.4882 45.0084 71.1262 36.7792 81.8814L24.2402 77.3892C24.4745 81.5819 24.9823 84.3814 25.7636 85.7876C21.4928 88.4179 15.6724 92.0767 8.30266 96.7642ZM37.1698 70.1626C40.399 70.1626 42.0136 67.7017 42.0136 62.7798C42.0136 58.5871 41.2063 54.2772 39.5917 49.8501C37.9771 45.4231 35.7896 41.9465 33.0292 39.4205C31.9355 38.4048 30.8678 37.897 29.8261 37.897C28.2115 37.897 26.636 39.0819 25.0995 41.4517C24.5527 50.0194 24.2141 57.5975 24.0839 64.1861L36.9355 70.1626C37.0136 70.1626 37.0917 70.1626 37.1698 70.1626ZM68.498 46.608L73.5761 41.4517C78.8105 45.0715 82.3521 48.7434 84.2011 52.4673L77.9511 60.8267C77.248 58.7694 76.2844 56.9595 75.0605 55.397C73.8626 53.8345 71.8573 52.233 69.0448 50.5923L67.7558 52.3501L67.0136 65.6705C66.9355 67.0246 67.7948 68.4309 69.5917 69.8892C71.3886 71.3475 72.7818 72.285 73.7714 72.7017L67.287 81.8814L55.1777 72.4673C56.636 70.7225 57.3912 68.9257 57.4433 67.0767L57.3652 52.0767C57.287 50.8267 56.3235 49.5767 54.4745 48.3267L60.373 40.9048L68.498 46.608ZM86.2323 53.4439L101.467 41.0611L118.732 49.147C116.701 50.9179 115.672 52.91 115.646 55.1236L115.49 68.0533C115.49 68.9387 115.946 69.9413 116.857 71.0611C117.795 72.1809 118.68 73.0793 119.514 73.7564L111.623 81.8814L105.568 75.6705C104.11 76.8423 102.639 77.9231 101.154 78.9126C99.6698 79.8762 98.3417 80.8918 97.1698 81.9595C93.2636 80.5012 89.6178 78.2486 86.2323 75.2017C87.1959 73.9777 87.7558 72.1939 87.912 69.8501L87.7948 58.0533C87.7948 57.9491 87.7948 57.8449 87.7948 57.7408C87.7948 56.2043 87.274 54.772 86.2323 53.4439ZM99.6308 50.4361C98.1204 52.7017 97.3652 54.7199 97.3652 56.4908V66.0611C97.3652 68.0142 97.7167 69.4074 98.4198 70.2408C99.0188 71.1001 99.5657 71.8684 100.06 72.5455C100.581 73.2225 101.402 73.7173 102.521 74.0298L105.725 71.7251V53.7564L99.6308 50.4361ZM121.818 74.6158L128.615 67.5064C126.167 64.2251 124.435 60.5142 123.42 56.3736C126.545 51.2173 131.167 46.0611 137.287 40.9048C142.105 42.233 147.626 43.483 153.85 44.6548L154.787 44.4205L147.443 51.9595L153.85 68.0142C149.006 71.634 144.553 76.2564 140.49 81.8814C135.412 78.8866 129.188 76.4647 121.818 74.6158ZM142.482 71.9205C145.113 71.9205 146.428 70.983 146.428 69.108C146.428 67.4673 144.553 64.0298 140.803 58.7955L131.428 68.4439C135.464 70.7616 139.149 71.9205 142.482 71.9205ZM136.31 59.4986L143.889 51.6861C139.357 50.4621 136.323 49.8501 134.787 49.8501C133.251 49.8501 132.391 50.0064 132.209 50.3189C132.053 50.6054 131.975 50.8788 131.975 51.1392C131.975 52.6236 133.42 55.41 136.31 59.4986ZM157.014 48.3267L162.912 40.9048L171.662 45.0064C171.35 46.0741 171.011 47.1158 170.646 48.1314C170.282 49.147 170.1 50.1887 170.1 51.2564L169.553 67.1158C169.553 67.246 169.553 67.3632 169.553 67.4673C169.553 68.6913 169.943 69.7069 170.725 70.5142C171.506 71.3215 172.404 71.9335 173.42 72.3501L165.607 81.8814L157.326 75.2017C158.837 73.4048 159.592 71.608 159.592 69.8111L159.865 52.0767C159.865 50.8267 158.915 49.5767 157.014 48.3267ZM158.185 40.5533L161.31 25.1236L172.912 29.772L158.185 40.5533ZM175.256 74.6158L182.053 67.5064C179.605 64.2251 177.873 60.5142 176.857 56.3736C179.982 51.2173 184.605 46.0611 190.725 40.9048C195.542 42.233 201.063 43.483 207.287 44.6548L208.225 44.4205L200.881 51.9595L207.287 68.0142C202.443 71.634 197.99 76.2564 193.928 81.8814C188.85 78.8866 182.626 76.4647 175.256 74.6158ZM195.92 71.9205C198.55 71.9205 199.865 70.983 199.865 69.108C199.865 67.4673 197.99 64.0298 194.24 58.7955L184.865 68.4439C188.902 70.7616 192.587 71.9205 195.92 71.9205ZM189.748 59.4986L197.326 51.6861C192.795 50.4621 189.761 49.8501 188.225 49.8501C186.688 49.8501 185.829 50.0064 185.646 50.3189C185.49 50.6054 185.412 50.8788 185.412 51.1392C185.412 52.6236 186.857 55.41 189.748 59.4986Z" fill="black"/>
</svg>
